<?xml version="1.0" encoding="UTF-8" standalone="no"?>
<!DOCTYPE svg PUBLIC "-//W3C//DTD SVG 1.1//EN"
 "http://www.w3.org/Graphics/SVG/1.1/DTD/svg11.dtd">
<!-- Generated by graphviz version 7.0.5 (20221223.1930)
 -->
<!-- Title: snakemake_dag Pages: 1 -->
<svg width="1250pt" height="548pt"
 viewBox="0.00 0.00 1250.00 548.00" xmlns="http://www.w3.org/2000/svg" xmlns:xlink="http://www.w3.org/1999/xlink">
<g id="graph0" class="graph" transform="scale(1 1) rotate(0) translate(4 544)">
<title>snakemake_dag</title>
<polygon fill="white" stroke="none" points="-4,4 -4,-544 1246,-544 1246,4 -4,4"/>
<!-- 0 -->
<g id="node1" class="node">
<title>0</title>
<path fill="none" stroke="#56d8b9" stroke-width="2" d="M671,-36C671,-36 641,-36 641,-36 635,-36 629,-30 629,-24 629,-24 629,-12 629,-12 629,-6 635,0 641,0 641,0 671,0 671,0 677,0 683,-6 683,-12 683,-12 683,-24 683,-24 683,-30 677,-36 671,-36"/>
<text text-anchor="middle" x="656" y="-15.5" font-family="sans" font-size="10.00">all</text>
</g>
<!-- 1 -->
<g id="node2" class="node">
<title>1</title>
<path fill="none" stroke="#56d87b" stroke-width="2" d="M409,-540C409,-540 379,-540 379,-540 373,-540 367,-534 367,-528 367,-528 367,-516 367,-516 367,-510 373,-504 379,-504 379,-504 409,-504 409,-504 415,-504 421,-510 421,-516 421,-516 421,-528 421,-528 421,-534 415,-540 409,-540"/>
<text text-anchor="middle" x="394" y="-519.5" font-family="sans" font-size="10.00">import</text>
</g>
<!-- 1&#45;&gt;0 -->
<g id="edge16" class="edge">
<title>1&#45;&gt;0</title>
<path fill="none" stroke="grey" stroke-width="2" d="M366.29,-517.16C276.61,-503.98 0,-456.98 0,-379 0,-379 0,-379 0,-161 0,-112.79 20.3,-96.19 62,-72 109.69,-44.34 489.19,-26.02 615.37,-20.64"/>
<polygon fill="grey" stroke="grey" stroke-width="2" points="615.26,-24.15 625.1,-20.23 614.96,-17.16 615.26,-24.15"/>
</g>
<!-- 2 -->
<g id="node3" class="node">
<title>2</title>
<path fill="none" stroke="#56d8a9" stroke-width="2" d="M180,-252C180,-252 150,-252 150,-252 144,-252 138,-246 138,-240 138,-240 138,-228 138,-228 138,-222 144,-216 150,-216 150,-216 180,-216 180,-216 186,-216 192,-222 192,-228 192,-228 192,-240 192,-240 192,-246 186,-252 180,-252"/>
<text text-anchor="middle" x="165" y="-231.5" font-family="sans" font-size="10.00">getmset</text>
</g>
<!-- 1&#45;&gt;2 -->
<g id="edge26" class="edge">
<title>1&#45;&gt;2</title>
<path fill="none" stroke="grey" stroke-width="2" d="M379.68,-503.11C340.96,-454.76 234.01,-321.19 187.31,-262.86"/>
<polygon fill="grey" stroke="grey" stroke-width="2" points="190.19,-260.87 181.21,-255.25 184.73,-265.24 190.19,-260.87"/>
</g>
<!-- 4 -->
<g id="node5" class="node">
<title>4</title>
<path fill="none" stroke="#567bd8" stroke-width="2" d="M409,-468C409,-468 379,-468 379,-468 373,-468 367,-462 367,-456 367,-456 367,-444 367,-444 367,-438 373,-432 379,-432 379,-432 409,-432 409,-432 415,-432 421,-438 421,-444 421,-444 421,-456 421,-456 421,-462 415,-468 409,-468"/>
<text text-anchor="middle" x="394" y="-447.5" font-family="sans" font-size="10.00">detpqc</text>
</g>
<!-- 1&#45;&gt;4 -->
<g id="edge28" class="edge">
<title>1&#45;&gt;4</title>
<path fill="none" stroke="grey" stroke-width="2" d="M394,-503.34C394,-496.75 394,-489.08 394,-481.67"/>
<polygon fill="grey" stroke="grey" stroke-width="2" points="397.5,-481.93 394,-471.93 390.5,-481.93 397.5,-481.93"/>
</g>
<!-- 9 -->
<g id="node10" class="node">
<title>9</title>
<path fill="none" stroke="#56d86b" stroke-width="2" d="M485.5,-252C485.5,-252 434.5,-252 434.5,-252 428.5,-252 422.5,-246 422.5,-240 422.5,-240 422.5,-228 422.5,-228 422.5,-222 428.5,-216 434.5,-216 434.5,-216 485.5,-216 485.5,-216 491.5,-216 497.5,-222 497.5,-228 497.5,-228 497.5,-240 497.5,-240 497.5,-246 491.5,-252 485.5,-252"/>
<text text-anchor="middle" x="460" y="-231.5" font-family="sans" font-size="10.00">controlstripqc</text>
</g>
<!-- 1&#45;&gt;9 -->
<g id="edge33" class="edge">
<title>1&#45;&gt;9</title>
<path fill="none" stroke="grey" stroke-width="2" d="M409.31,-503.07C416.79,-493.32 425.19,-480.69 430,-468 456.14,-399.05 460.32,-311.28 460.52,-265.66"/>
<polygon fill="grey" stroke="grey" stroke-width="2" points="464.02,-265.93 460.49,-255.95 457.02,-265.96 464.02,-265.93"/>
</g>
<!-- 11 -->
<g id="node12" class="node">
<title>11</title>
<path fill="none" stroke="#56b9d8" stroke-width="2" d="M651.5,-468C651.5,-468 616.5,-468 616.5,-468 610.5,-468 604.5,-462 604.5,-456 604.5,-456 604.5,-444 604.5,-444 604.5,-438 610.5,-432 616.5,-432 616.5,-432 651.5,-432 651.5,-432 657.5,-432 663.5,-438 663.5,-444 663.5,-444 663.5,-456 663.5,-456 663.5,-462 657.5,-468 651.5,-468"/>
<text text-anchor="middle" x="634" y="-447.5" font-family="sans" font-size="10.00">normalise</text>
</g>
<!-- 1&#45;&gt;11 -->
<g id="edge35" class="edge">
<title>1&#45;&gt;11</title>
<path fill="none" stroke="grey" stroke-width="2" d="M421.53,-512.97C463.12,-500.84 542.32,-477.74 591.4,-463.43"/>
<polygon fill="grey" stroke="grey" stroke-width="2" points="592.26,-466.82 600.88,-460.66 590.3,-460.1 592.26,-466.82"/>
</g>
<!-- 2&#45;&gt;0 -->
<g id="edge18" class="edge">
<title>2&#45;&gt;0</title>
<path fill="none" stroke="grey" stroke-width="2" d="M137.31,-227.96C111.5,-221.63 74.45,-208.01 57,-180 28.51,-134.28 64.93,-98.19 112,-72 198.36,-23.94 504.38,-19 615.39,-18.83"/>
<polygon fill="grey" stroke="grey" stroke-width="2" points="615.21,-22.33 625.21,-18.83 615.21,-15.33 615.21,-22.33"/>
</g>
<!-- 3 -->
<g id="node4" class="node">
<title>3</title>
<path fill="none" stroke="#80d856" stroke-width="2" d="M108,-180C108,-180 78,-180 78,-180 72,-180 66,-174 66,-168 66,-168 66,-156 66,-156 66,-150 72,-144 78,-144 78,-144 108,-144 108,-144 114,-144 120,-150 120,-156 120,-156 120,-168 120,-168 120,-174 114,-180 108,-180"/>
<text text-anchor="middle" x="93" y="-159.5" font-family="sans" font-size="10.00">getrset</text>
</g>
<!-- 2&#45;&gt;3 -->
<g id="edge27" class="edge">
<title>2&#45;&gt;3</title>
<path fill="none" stroke="grey" stroke-width="2" d="M146.83,-215.34C138.88,-207.6 129.37,-198.36 120.57,-189.81"/>
<polygon fill="grey" stroke="grey" stroke-width="2" points="123.19,-187.47 113.58,-183.01 118.31,-192.49 123.19,-187.47"/>
</g>
<!-- 5 -->
<g id="node6" class="node">
<title>5</title>
<path fill="none" stroke="#566bd8" stroke-width="2" d="M180,-180C180,-180 150,-180 150,-180 144,-180 138,-174 138,-168 138,-168 138,-156 138,-156 138,-150 144,-144 150,-144 150,-144 180,-144 180,-144 186,-144 192,-150 192,-156 192,-156 192,-168 192,-168 192,-174 186,-180 180,-180"/>
<text text-anchor="middle" x="165" y="-159.5" font-family="sans" font-size="10.00">msetqc</text>
</g>
<!-- 2&#45;&gt;5 -->
<g id="edge29" class="edge">
<title>2&#45;&gt;5</title>
<path fill="none" stroke="grey" stroke-width="2" d="M165,-215.34C165,-208.75 165,-201.08 165,-193.67"/>
<polygon fill="grey" stroke="grey" stroke-width="2" points="168.5,-193.93 165,-183.93 161.5,-193.93 168.5,-193.93"/>
</g>
<!-- 6 -->
<g id="node7" class="node">
<title>6</title>
<path fill="none" stroke="#d8bc56" stroke-width="2" d="M252,-180C252,-180 222,-180 222,-180 216,-180 210,-174 210,-168 210,-168 210,-156 210,-156 210,-150 216,-144 222,-144 222,-144 252,-144 252,-144 258,-144 264,-150 264,-156 264,-156 264,-168 264,-168 264,-174 258,-180 252,-180"/>
<text text-anchor="middle" x="237" y="-159.5" font-family="sans" font-size="10.00">getgrset</text>
</g>
<!-- 2&#45;&gt;6 -->
<g id="edge30" class="edge">
<title>2&#45;&gt;6</title>
<path fill="none" stroke="grey" stroke-width="2" d="M183.17,-215.34C191.12,-207.6 200.63,-198.36 209.43,-189.81"/>
<polygon fill="grey" stroke="grey" stroke-width="2" points="211.69,-192.49 216.42,-183.01 206.81,-187.47 211.69,-192.49"/>
</g>
<!-- 3&#45;&gt;0 -->
<g id="edge12" class="edge">
<title>3&#45;&gt;0</title>
<path fill="none" stroke="grey" stroke-width="2" d="M98.4,-143.18C105.75,-122.29 121.04,-88.44 147,-72 224.57,-22.87 508.68,-18.52 615.26,-18.67"/>
<polygon fill="grey" stroke="grey" stroke-width="2" points="615.18,-22.17 625.19,-18.71 615.2,-15.17 615.18,-22.17"/>
</g>
<!-- 4&#45;&gt;0 -->
<g id="edge24" class="edge">
<title>4&#45;&gt;0</title>
<path fill="none" stroke="grey" stroke-width="2" d="M391.94,-431.22C388.03,-391.11 382.44,-291.2 413,-216 444.26,-139.08 465.51,-121.72 532,-72 557.26,-53.11 590.28,-39.42 615.9,-30.69"/>
<polygon fill="grey" stroke="grey" stroke-width="2" points="616.87,-34.06 625.29,-27.63 614.7,-27.4 616.87,-34.06"/>
</g>
<!-- 5&#45;&gt;0 -->
<g id="edge25" class="edge">
<title>5&#45;&gt;0</title>
<path fill="none" stroke="grey" stroke-width="2" d="M157.63,-143.17C150.7,-123.23 143.74,-91.21 161,-72 191.22,-38.37 502.74,-24.31 615.52,-20.29"/>
<polygon fill="grey" stroke="grey" stroke-width="2" points="615.36,-23.8 625.23,-19.96 615.12,-16.8 615.36,-23.8"/>
</g>
<!-- 6&#45;&gt;0 -->
<g id="edge6" class="edge">
<title>6&#45;&gt;0</title>
<path fill="none" stroke="grey" stroke-width="2" d="M209.08,-146.58C194.86,-137.59 178.94,-124.56 171,-108 164.08,-93.57 160.32,-83.91 171,-72 200.48,-39.12 503.8,-24.64 615.23,-20.4"/>
<polygon fill="grey" stroke="grey" stroke-width="2" points="615.25,-23.9 625.11,-20.03 614.99,-16.91 615.25,-23.9"/>
</g>
<!-- 7 -->
<g id="node8" class="node">
<title>7</title>
<path fill="none" stroke="#68d856" stroke-width="2" d="M264,-108C264,-108 192,-108 192,-108 186,-108 180,-102 180,-96 180,-96 180,-84 180,-84 180,-78 186,-72 192,-72 192,-72 264,-72 264,-72 270,-72 276,-78 276,-84 276,-84 276,-96 276,-96 276,-102 270,-108 264,-108"/>
<text text-anchor="middle" x="228" y="-87.5" font-family="sans" font-size="10.00">densityqcbeta_pre</text>
</g>
<!-- 6&#45;&gt;7 -->
<g id="edge31" class="edge">
<title>6&#45;&gt;7</title>
<path fill="none" stroke="grey" stroke-width="2" d="M234.73,-143.34C233.88,-136.75 232.9,-129.08 231.94,-121.67"/>
<polygon fill="grey" stroke="grey" stroke-width="2" points="235.43,-121.38 230.69,-111.9 228.49,-122.27 235.43,-121.38"/>
</g>
<!-- 8 -->
<g id="node9" class="node">
<title>8</title>
<path fill="none" stroke="#a7d856" stroke-width="2" d="M368,-108C368,-108 306,-108 306,-108 300,-108 294,-102 294,-96 294,-96 294,-84 294,-84 294,-78 300,-72 306,-72 306,-72 368,-72 368,-72 374,-72 380,-78 380,-84 380,-84 380,-96 380,-96 380,-102 374,-108 368,-108"/>
<text text-anchor="middle" x="337" y="-87.5" font-family="sans" font-size="10.00">densityqcm_pre</text>
</g>
<!-- 6&#45;&gt;8 -->
<g id="edge32" class="edge">
<title>6&#45;&gt;8</title>
<path fill="none" stroke="grey" stroke-width="2" d="M262.49,-143.15C274.25,-134.93 288.4,-125.02 301.2,-116.06"/>
<polygon fill="grey" stroke="grey" stroke-width="2" points="302.89,-119.15 309.07,-110.55 298.87,-113.42 302.89,-119.15"/>
</g>
<!-- 10 -->
<g id="node11" class="node">
<title>10</title>
<path fill="none" stroke="#d86e56" stroke-width="2" d="M463.5,-108C463.5,-108 410.5,-108 410.5,-108 404.5,-108 398.5,-102 398.5,-96 398.5,-96 398.5,-84 398.5,-84 398.5,-78 404.5,-72 410.5,-72 410.5,-72 463.5,-72 463.5,-72 469.5,-72 475.5,-78 475.5,-84 475.5,-84 475.5,-96 475.5,-96 475.5,-102 469.5,-108 463.5,-108"/>
<text text-anchor="middle" x="437" y="-87.5" font-family="sans" font-size="10.00">boxplotqc_pre</text>
</g>
<!-- 6&#45;&gt;10 -->
<g id="edge34" class="edge">
<title>6&#45;&gt;10</title>
<path fill="none" stroke="grey" stroke-width="2" d="M264.75,-151.37C292.85,-141.61 337.87,-125.94 385.54,-109.21"/>
<polygon fill="grey" stroke="grey" stroke-width="2" points="386.58,-112.55 394.86,-105.94 384.26,-105.95 386.58,-112.55"/>
</g>
<!-- 7&#45;&gt;0 -->
<g id="edge13" class="edge">
<title>7&#45;&gt;0</title>
<path fill="none" stroke="grey" stroke-width="2" d="M276.69,-73.96C279.49,-73.26 282.28,-72.6 285,-72 403.86,-45.93 547.07,-29.67 615.61,-22.79"/>
<polygon fill="grey" stroke="grey" stroke-width="2" points="615.67,-26.3 625.28,-21.84 614.98,-19.34 615.67,-26.3"/>
</g>
<!-- 8&#45;&gt;0 -->
<g id="edge10" class="edge">
<title>8&#45;&gt;0</title>
<path fill="none" stroke="grey" stroke-width="2" d="M380.86,-74.25C383.61,-73.45 386.34,-72.7 389,-72 468.28,-51.25 562.66,-34.29 615.31,-25.51"/>
<polygon fill="grey" stroke="grey" stroke-width="2" points="615.79,-28.98 625.09,-23.9 614.65,-22.07 615.79,-28.98"/>
</g>
<!-- 9&#45;&gt;0 -->
<g id="edge15" class="edge">
<title>9&#45;&gt;0</title>
<path fill="none" stroke="grey" stroke-width="2" d="M468.32,-215.15C483.85,-183.28 519.93,-115.82 566,-72 580.84,-57.89 600.1,-45.91 617,-36.93"/>
<polygon fill="grey" stroke="grey" stroke-width="2" points="618.21,-40.24 625.53,-32.58 615.03,-34 618.21,-40.24"/>
</g>
<!-- 10&#45;&gt;0 -->
<g id="edge2" class="edge">
<title>10&#45;&gt;0</title>
<path fill="none" stroke="grey" stroke-width="2" d="M476.36,-76.37C480.96,-74.89 485.58,-73.41 490,-72 533.05,-58.22 582.39,-42.47 616.02,-31.75"/>
<polygon fill="grey" stroke="grey" stroke-width="2" points="616.75,-35.19 625.21,-28.82 614.62,-28.52 616.75,-35.19"/>
</g>
<!-- 11&#45;&gt;0 -->
<g id="edge21" class="edge">
<title>11&#45;&gt;0</title>
<path fill="none" stroke="grey" stroke-width="2" d="M603.92,-441.88C580.6,-434.6 549.83,-420.75 535,-396 526.78,-382.27 532.87,-375.86 535,-360 552.72,-227.85 558.4,-190.77 619,-72 623.3,-63.58 628.78,-54.95 634.19,-47.18"/>
<polygon fill="grey" stroke="grey" stroke-width="2" points="636.86,-49.46 639.9,-39.31 631.2,-45.35 636.86,-49.46"/>
</g>
<!-- 12 -->
<g id="node13" class="node">
<title>12</title>
<path fill="none" stroke="#59d856" stroke-width="2" d="M633.5,-396C633.5,-396 556.5,-396 556.5,-396 550.5,-396 544.5,-390 544.5,-384 544.5,-384 544.5,-372 544.5,-372 544.5,-366 550.5,-360 556.5,-360 556.5,-360 633.5,-360 633.5,-360 639.5,-360 645.5,-366 645.5,-372 645.5,-372 645.5,-384 645.5,-384 645.5,-390 639.5,-396 633.5,-396"/>
<text text-anchor="middle" x="595" y="-375.5" font-family="sans" font-size="10.00">densityqcbeta_post</text>
</g>
<!-- 11&#45;&gt;12 -->
<g id="edge36" class="edge">
<title>11&#45;&gt;12</title>
<path fill="none" stroke="grey" stroke-width="2" d="M624.16,-431.34C620.26,-424.34 615.68,-416.12 611.31,-408.28"/>
<polygon fill="grey" stroke="grey" stroke-width="2" points="614.37,-406.58 606.45,-399.55 608.26,-409.99 614.37,-406.58"/>
</g>
<!-- 13 -->
<g id="node14" class="node">
<title>13</title>
<path fill="none" stroke="#d85656" stroke-width="2" d="M671.5,-252C671.5,-252 604.5,-252 604.5,-252 598.5,-252 592.5,-246 592.5,-240 592.5,-240 592.5,-228 592.5,-228 592.5,-222 598.5,-216 604.5,-216 604.5,-216 671.5,-216 671.5,-216 677.5,-216 683.5,-222 683.5,-228 683.5,-228 683.5,-240 683.5,-240 683.5,-246 677.5,-252 671.5,-252"/>
<text text-anchor="middle" x="638" y="-231.5" font-family="sans" font-size="10.00">densityqcm_post</text>
</g>
<!-- 11&#45;&gt;13 -->
<g id="edge37" class="edge">
<title>11&#45;&gt;13</title>
<path fill="none" stroke="grey" stroke-width="2" d="M642.51,-431.31C646.9,-421.22 651.78,-408.19 654,-396 662.25,-350.79 653.42,-297.6 645.97,-265.1"/>
<polygon fill="grey" stroke="grey" stroke-width="2" points="649.39,-264.36 643.63,-255.46 642.59,-266.01 649.39,-264.36"/>
</g>
<!-- 14 -->
<g id="node15" class="node">
<title>14</title>
<path fill="none" stroke="#b6d856" stroke-width="2" d="M773.5,-396C773.5,-396 714.5,-396 714.5,-396 708.5,-396 702.5,-390 702.5,-384 702.5,-384 702.5,-372 702.5,-372 702.5,-366 708.5,-360 714.5,-360 714.5,-360 773.5,-360 773.5,-360 779.5,-360 785.5,-366 785.5,-372 785.5,-372 785.5,-384 785.5,-384 785.5,-390 779.5,-396 773.5,-396"/>
<text text-anchor="middle" x="744" y="-375.5" font-family="sans" font-size="10.00">boxplotqc_post</text>
</g>
<!-- 11&#45;&gt;14 -->
<g id="edge38" class="edge">
<title>11&#45;&gt;14</title>
<path fill="none" stroke="grey" stroke-width="2" d="M662.04,-431.15C675.1,-422.84 690.85,-412.82 705.04,-403.79"/>
<polygon fill="grey" stroke="grey" stroke-width="2" points="706.9,-406.76 713.46,-398.44 703.14,-400.85 706.9,-406.76"/>
</g>
<!-- 15 -->
<g id="node16" class="node">
<title>15</title>
<path fill="none" stroke="#56d8d0" stroke-width="2" d="M874,-396C874,-396 844,-396 844,-396 838,-396 832,-390 832,-384 832,-384 832,-372 832,-372 832,-366 838,-360 844,-360 844,-360 874,-360 874,-360 880,-360 886,-366 886,-372 886,-372 886,-384 886,-384 886,-390 880,-396 874,-396"/>
<text text-anchor="middle" x="859" y="-375.5" font-family="sans" font-size="10.00">filter</text>
</g>
<!-- 11&#45;&gt;15 -->
<g id="edge39" class="edge">
<title>11&#45;&gt;15</title>
<path fill="none" stroke="grey" stroke-width="2" d="M664.34,-439.56C704.3,-427.13 774.66,-405.24 818.95,-391.46"/>
<polygon fill="grey" stroke="grey" stroke-width="2" points="819.85,-394.84 828.36,-388.53 817.77,-388.16 819.85,-394.84"/>
</g>
<!-- 12&#45;&gt;0 -->
<g id="edge14" class="edge">
<title>12&#45;&gt;0</title>
<path fill="none" stroke="grey" stroke-width="2" d="M592.75,-359.24C589.82,-335.04 584.84,-290.33 583,-252 582.23,-236.02 580.18,-231.75 583,-216 586.04,-199.03 624.4,-99.7 644.26,-48.9"/>
<polygon fill="grey" stroke="grey" stroke-width="2" points="647.49,-50.23 647.88,-39.64 640.98,-47.67 647.49,-50.23"/>
</g>
<!-- 13&#45;&gt;0 -->
<g id="edge1" class="edge">
<title>13&#45;&gt;0</title>
<path fill="none" stroke="grey" stroke-width="2" d="M639.5,-215.12C642.57,-178.62 649.6,-95.13 653.41,-49.74"/>
<polygon fill="grey" stroke="grey" stroke-width="2" points="656.88,-50.25 654.23,-39.99 649.91,-49.66 656.88,-50.25"/>
</g>
<!-- 14&#45;&gt;0 -->
<g id="edge9" class="edge">
<title>14&#45;&gt;0</title>
<path fill="none" stroke="grey" stroke-width="2" d="M737.37,-359.36C728,-332.79 712,-280.74 712,-235 712,-235 712,-235 712,-161 712,-119.49 691.04,-75.62 674.76,-47.82"/>
<polygon fill="grey" stroke="grey" stroke-width="2" points="677.91,-46.25 669.72,-39.52 671.93,-49.89 677.91,-46.25"/>
</g>
<!-- 15&#45;&gt;0 -->
<g id="edge19" class="edge">
<title>15&#45;&gt;0</title>
<path fill="none" stroke="grey" stroke-width="2" d="M832.34,-359.06C800.07,-334.98 750,-288.92 750,-235 750,-235 750,-235 750,-161 750,-114.45 714.45,-71.45 687.07,-45.24"/>
<polygon fill="grey" stroke="grey" stroke-width="2" points="689.75,-42.95 680.03,-38.74 685.01,-48.09 689.75,-42.95"/>
</g>
<!-- 17 -->
<g id="node18" class="node">
<title>17</title>
<path fill="none" stroke="#d8cb56" stroke-width="2" d="M820,-252C820,-252 790,-252 790,-252 784,-252 778,-246 778,-240 778,-240 778,-228 778,-228 778,-222 784,-216 790,-216 790,-216 820,-216 820,-216 826,-216 832,-222 832,-228 832,-228 832,-240 832,-240 832,-246 826,-252 820,-252"/>
<text text-anchor="middle" x="805" y="-231.5" font-family="sans" font-size="10.00">pca</text>
</g>
<!-- 15&#45;&gt;17 -->
<g id="edge41" class="edge">
<title>15&#45;&gt;17</title>
<path fill="none" stroke="grey" stroke-width="2" d="M834.57,-359.15C824.03,-349.95 812.81,-337.78 807,-324 799.28,-305.71 798.81,-283.36 800.25,-265.64"/>
<polygon fill="grey" stroke="grey" stroke-width="2" points="803.71,-266.19 801.34,-255.86 796.75,-265.41 803.71,-266.19"/>
</g>
<!-- 18 -->
<g id="node19" class="node">
<title>18</title>
<path fill="none" stroke="#8fd856" stroke-width="2" d="M890,-324C890,-324 828,-324 828,-324 822,-324 816,-318 816,-312 816,-312 816,-300 816,-300 816,-294 822,-288 828,-288 828,-288 890,-288 890,-288 896,-288 902,-294 902,-300 902,-300 902,-312 902,-312 902,-318 896,-324 890,-324"/>
<text text-anchor="middle" x="859" y="-303.5" font-family="sans" font-size="10.00">densityheatmap</text>
</g>
<!-- 15&#45;&gt;18 -->
<g id="edge42" class="edge">
<title>15&#45;&gt;18</title>
<path fill="none" stroke="grey" stroke-width="2" d="M859,-359.34C859,-352.75 859,-345.08 859,-337.67"/>
<polygon fill="grey" stroke="grey" stroke-width="2" points="862.5,-337.93 859,-327.93 855.5,-337.93 862.5,-337.93"/>
</g>
<!-- 19 -->
<g id="node20" class="node">
<title>19</title>
<path fill="none" stroke="#56d892" stroke-width="2" d="M962,-324C962,-324 932,-324 932,-324 926,-324 920,-318 920,-312 920,-312 920,-300 920,-300 920,-294 926,-288 932,-288 932,-288 962,-288 962,-288 968,-288 974,-294 974,-300 974,-300 974,-312 974,-312 974,-318 968,-324 962,-324"/>
<text text-anchor="middle" x="947" y="-303.5" font-family="sans" font-size="10.00">tracks</text>
</g>
<!-- 15&#45;&gt;19 -->
<g id="edge43" class="edge">
<title>15&#45;&gt;19</title>
<path fill="none" stroke="grey" stroke-width="2" d="M881.21,-359.34C891.24,-351.36 903.29,-341.77 914.33,-332.99"/>
<polygon fill="grey" stroke="grey" stroke-width="2" points="916.48,-335.75 922.13,-326.79 912.12,-330.27 916.48,-335.75"/>
</g>
<!-- 20 -->
<g id="node21" class="node">
<title>20</title>
<path fill="none" stroke="#d8a456" stroke-width="2" d="M1048,-324C1048,-324 1004,-324 1004,-324 998,-324 992,-318 992,-312 992,-312 992,-300 992,-300 992,-294 998,-288 1004,-288 1004,-288 1048,-288 1048,-288 1054,-288 1060,-294 1060,-300 1060,-300 1060,-312 1060,-312 1060,-318 1054,-324 1048,-324"/>
<text text-anchor="middle" x="1026" y="-303.5" font-family="sans" font-size="10.00">dmrcatecpg</text>
</g>
<!-- 15&#45;&gt;20 -->
<g id="edge44" class="edge">
<title>15&#45;&gt;20</title>
<path fill="none" stroke="grey" stroke-width="2" d="M886.95,-365.28C912.17,-354.71 949.76,-338.96 979.5,-326.49"/>
<polygon fill="grey" stroke="grey" stroke-width="2" points="980.63,-329.81 988.5,-322.72 977.92,-323.36 980.63,-329.81"/>
</g>
<!-- 16 -->
<g id="node17" class="node">
<title>16</title>
<path fill="none" stroke="#d87d56" stroke-width="2" d="M1024,-468C1024,-468 994,-468 994,-468 988,-468 982,-462 982,-456 982,-456 982,-444 982,-444 982,-438 988,-432 994,-432 994,-432 1024,-432 1024,-432 1030,-432 1036,-438 1036,-444 1036,-444 1036,-456 1036,-456 1036,-462 1030,-468 1024,-468"/>
<text text-anchor="middle" x="1009" y="-447.5" font-family="sans" font-size="10.00">probes</text>
</g>
<!-- 16&#45;&gt;0 -->
<g id="edge3" class="edge">
<title>16&#45;&gt;0</title>
<path fill="none" stroke="grey" stroke-width="2" d="M1036.7,-437.97C1080.29,-418.57 1160,-373.93 1160,-307 1160,-307 1160,-307 1160,-161 1160,-118.97 1160.98,-98.06 1128,-72 1061.66,-19.58 798.72,-17.13 696.73,-18.23"/>
<polygon fill="grey" stroke="grey" stroke-width="2" points="696.7,-14.73 686.75,-18.36 696.79,-21.73 696.7,-14.73"/>
</g>
<!-- 16&#45;&gt;15 -->
<g id="edge40" class="edge">
<title>16&#45;&gt;15</title>
<path fill="none" stroke="grey" stroke-width="2" d="M981.14,-436C957.95,-425.18 924.66,-409.64 898.69,-397.52"/>
<polygon fill="grey" stroke="grey" stroke-width="2" points="900.25,-394.39 889.71,-393.33 897.29,-400.73 900.25,-394.39"/>
</g>
<!-- 17&#45;&gt;0 -->
<g id="edge7" class="edge">
<title>17&#45;&gt;0</title>
<path fill="none" stroke="grey" stroke-width="2" d="M805.12,-215.15C804.43,-182.98 798.63,-114.66 764,-72 746.78,-50.79 718.97,-37.42 695.88,-29.42"/>
<polygon fill="grey" stroke="grey" stroke-width="2" points="697.11,-26.13 686.52,-26.42 694.98,-32.8 697.11,-26.13"/>
</g>
<!-- 18&#45;&gt;0 -->
<g id="edge11" class="edge">
<title>18&#45;&gt;0</title>
<path fill="none" stroke="grey" stroke-width="2" d="M858.91,-287.1C857.71,-244.02 848.63,-133.61 789,-72 764.34,-46.52 725.87,-32.98 696.63,-25.99"/>
<polygon fill="grey" stroke="grey" stroke-width="2" points="697.4,-22.57 686.89,-23.86 695.91,-29.41 697.4,-22.57"/>
</g>
<!-- 19&#45;&gt;0 -->
<g id="edge17" class="edge">
<title>19&#45;&gt;0</title>
<path fill="none" stroke="grey" stroke-width="2" d="M937.84,-287.01C911.27,-235.06 834.85,-87.53 816,-72 781.56,-43.62 731.37,-30.24 696.41,-24.07"/>
<polygon fill="grey" stroke="grey" stroke-width="2" points="697.25,-20.66 686.82,-22.52 696.13,-27.57 697.25,-20.66"/>
</g>
<!-- 20&#45;&gt;0 -->
<g id="edge5" class="edge">
<title>20&#45;&gt;0</title>
<path fill="none" stroke="grey" stroke-width="2" d="M1012.14,-287.05C970.45,-233.09 848.66,-75.8 843,-72 798.3,-42.03 736.73,-28.84 696.65,-23.14"/>
<polygon fill="grey" stroke="grey" stroke-width="2" points="697.3,-19.7 686.93,-21.88 696.4,-26.64 697.3,-19.7"/>
</g>
<!-- 21 -->
<g id="node22" class="node">
<title>21</title>
<path fill="none" stroke="#5692d8" stroke-width="2" d="M1050,-252C1050,-252 1006,-252 1006,-252 1000,-252 994,-246 994,-240 994,-240 994,-228 994,-228 994,-222 1000,-216 1006,-216 1006,-216 1050,-216 1050,-216 1056,-216 1062,-222 1062,-228 1062,-228 1062,-240 1062,-240 1062,-246 1056,-252 1050,-252"/>
<text text-anchor="middle" x="1028" y="-231.5" font-family="sans" font-size="10.00">dmrcatedmr</text>
</g>
<!-- 20&#45;&gt;21 -->
<g id="edge46" class="edge">
<title>20&#45;&gt;21</title>
<path fill="none" stroke="grey" stroke-width="2" d="M1026.5,-287.34C1026.69,-280.75 1026.91,-273.08 1027.12,-265.67"/>
<polygon fill="grey" stroke="grey" stroke-width="2" points="1030.61,-266.02 1027.4,-255.93 1023.62,-265.82 1030.61,-266.02"/>
</g>
<!-- 21&#45;&gt;0 -->
<g id="edge23" class="edge">
<title>21&#45;&gt;0</title>
<path fill="none" stroke="grey" stroke-width="2" d="M1015.07,-215.41C1008.01,-205.35 999.43,-192.32 993,-180 969.08,-134.2 990.01,-104.69 950,-72 911.8,-40.78 768.02,-26.69 696.67,-21.52"/>
<polygon fill="grey" stroke="grey" stroke-width="2" points="697.06,-18.03 686.85,-20.83 696.58,-25.02 697.06,-18.03"/>
</g>
<!-- 23 -->
<g id="node24" class="node">
<title>23</title>
<path fill="none" stroke="#56a9d8" stroke-width="2" d="M1044,-180C1044,-180 1014,-180 1014,-180 1008,-180 1002,-174 1002,-168 1002,-168 1002,-156 1002,-156 1002,-150 1008,-144 1014,-144 1014,-144 1044,-144 1044,-144 1050,-144 1056,-150 1056,-156 1056,-156 1056,-168 1056,-168 1056,-174 1050,-180 1044,-180"/>
<text text-anchor="middle" x="1029" y="-159.5" font-family="sans" font-size="10.00">annotate</text>
</g>
<!-- 21&#45;&gt;23 -->
<g id="edge47" class="edge">
<title>21&#45;&gt;23</title>
<path fill="none" stroke="grey" stroke-width="2" d="M1028.25,-215.34C1028.35,-208.75 1028.46,-201.08 1028.56,-193.67"/>
<polygon fill="grey" stroke="grey" stroke-width="2" points="1032.06,-193.98 1028.7,-183.93 1025.06,-193.88 1032.06,-193.98"/>
</g>
<!-- 22 -->
<g id="node23" class="node">
<title>22</title>
<path fill="none" stroke="#ced856" stroke-width="2" d="M1120,-324C1120,-324 1090,-324 1090,-324 1084,-324 1078,-318 1078,-312 1078,-312 1078,-300 1078,-300 1078,-294 1084,-288 1090,-288 1090,-288 1120,-288 1120,-288 1126,-288 1132,-294 1132,-300 1132,-300 1132,-312 1132,-312 1132,-318 1126,-324 1120,-324"/>
<text text-anchor="middle" x="1105" y="-303.5" font-family="sans" font-size="10.00">chain</text>
</g>
<!-- 22&#45;&gt;0 -->
<g id="edge8" class="edge">
<title>22&#45;&gt;0</title>
<path fill="none" stroke="grey" stroke-width="2" d="M1111.83,-287.04C1126.95,-243.83 1157.8,-133.16 1103,-72 1076.08,-41.96 801.87,-25.9 696.73,-20.81"/>
<polygon fill="grey" stroke="grey" stroke-width="2" points="697.09,-17.33 686.94,-20.35 696.76,-24.32 697.09,-17.33"/>
</g>
<!-- 22&#45;&gt;21 -->
<g id="edge45" class="edge">
<title>22&#45;&gt;21</title>
<path fill="none" stroke="grey" stroke-width="2" d="M1085.57,-287.34C1076.97,-279.52 1066.68,-270.16 1057.19,-261.53"/>
<polygon fill="grey" stroke="grey" stroke-width="2" points="1059.69,-259.07 1049.93,-254.94 1054.98,-264.25 1059.69,-259.07"/>
</g>
<!-- 23&#45;&gt;0 -->
<g id="edge22" class="edge">
<title>23&#45;&gt;0</title>
<path fill="none" stroke="grey" stroke-width="2" d="M1025.95,-143.17C1021.44,-122.59 1010.91,-89.37 988,-72 942.77,-37.71 774.63,-24.93 696.45,-20.77"/>
<polygon fill="grey" stroke="grey" stroke-width="2" points="697.01,-17.29 686.85,-20.28 696.66,-24.28 697.01,-17.29"/>
</g>
<!-- 24 -->
<g id="node25" class="node">
<title>24</title>
<path fill="none" stroke="#56d0d8" stroke-width="2" d="M1082,-108C1082,-108 1052,-108 1052,-108 1046,-108 1040,-102 1040,-96 1040,-96 1040,-84 1040,-84 1040,-78 1046,-72 1052,-72 1052,-72 1082,-72 1082,-72 1088,-72 1094,-78 1094,-84 1094,-84 1094,-96 1094,-96 1094,-102 1088,-108 1082,-108"/>
<text text-anchor="middle" x="1067" y="-87.5" font-family="sans" font-size="10.00">rankplot</text>
</g>
<!-- 23&#45;&gt;24 -->
<g id="edge48" class="edge">
<title>23&#45;&gt;24</title>
<path fill="none" stroke="grey" stroke-width="2" d="M1038.59,-143.34C1042.39,-136.34 1046.85,-128.12 1051.11,-120.28"/>
<polygon fill="grey" stroke="grey" stroke-width="2" points="1054.14,-122.02 1055.84,-111.56 1047.99,-118.68 1054.14,-122.02"/>
</g>
<!-- 24&#45;&gt;0 -->
<g id="edge20" class="edge">
<title>24&#45;&gt;0</title>
<path fill="none" stroke="grey" stroke-width="2" d="M1039.1,-76.34C1034.77,-74.7 1030.31,-73.18 1026,-72 908.95,-39.9 765.44,-26.41 696.61,-21.48"/>
<polygon fill="grey" stroke="grey" stroke-width="2" points="697.11,-18 686.89,-20.81 696.62,-24.99 697.11,-18"/>
</g>
<!-- 25 -->
<g id="node26" class="node">
<title>25</title>
<path fill="none" stroke="#d89556" stroke-width="2" d="M1230,-108C1230,-108 1200,-108 1200,-108 1194,-108 1188,-102 1188,-96 1188,-96 1188,-84 1188,-84 1188,-78 1194,-72 1200,-72 1200,-72 1230,-72 1230,-72 1236,-72 1242,-78 1242,-84 1242,-84 1242,-96 1242,-96 1242,-102 1236,-108 1230,-108"/>
<text text-anchor="middle" x="1215" y="-87.5" font-family="sans" font-size="10.00">manifest</text>
</g>
<!-- 25&#45;&gt;0 -->
<g id="edge4" class="edge">
<title>25&#45;&gt;0</title>
<path fill="none" stroke="grey" stroke-width="2" d="M1187.14,-76.19C1182.81,-74.57 1178.33,-73.09 1174,-72 1000.15,-28.07 784.73,-20.4 696.52,-19.17"/>
<polygon fill="grey" stroke="grey" stroke-width="2" points="696.79,-15.67 686.75,-19.06 696.71,-22.67 696.79,-15.67"/>
</g>
</g>
</svg>
